<svg id="Warstwa_1" data-name="Warstwa 1" xmlns="http://www.w3.org/2000/svg" viewBox="0 0 1034.83 550.29"><defs><style>.cls-1{fill:#fff;}.cls-2{fill:#ded7c9;}.cls-3{fill:#253029;}</style></defs><path class="cls-1" d="M865.27,456.43c-5.75-.6-11.57-1.23-17.39-1.8-4.77-.47-9.63-.46-14.3-1.39-6.63-1.31-13.13-3.24-19.68-4.92-12-4.69-45.74-24.7-49.61-27.26,2.16-20.53,12.66-40.39,9.94-64.25-8.53,5.19-15.26,9.3-22,13.37-11.22,6.75-22.34,13.66-33.71,20.14-9.32,5.31-20.59,3.11-28.37-4.08-7.17-6.63-14.79-12.79-22.3-19.07a3.73,3.73,0,0,0-1.19-1.64,288.63,288.63,0,0,0-58.7-35.88c-1.11-.92-2.27-1.74-3.45-2.54-11.1-7.52-22.54-14.62-33.16-22.73-6.13-4.67-12.16-6.95-19.94-6.77a52.61,52.61,0,0,1-16.8-2.65c-17.77-5.66-35.05-13.11-53.14-17.44-16-3.83-32-6.44-47.2-13.44-19.05-8.77-38.84-16-55-29.66a46,46,0,0,0-7.32-5.12c-20.19-11.23-40.26-22.68-60.76-33.36-7.08-3.69-15.16-5.69-22.95-7.89-4.77-1.34-9.88-1.52-14.8-2.37-16.85-2.93-33.6-5.52-50.19,1.58-4.53,1.94-9.88,2.08-14.43,4-8.31,3.47-15.21,1.05-21.72-3.74-18.42-13.58-33.21-30-40.66-51.63-4-11.57-7.19-23.44-10.13-35.31C128.84,70.63,117.59,43,93.45,21.36,77.05,6.66,58,.37,36.48,0,25.13-.18,16,2,12.36,16.35c-1,4-4.33,7.52-6.38,11.36S2.23,35.37.37,39.22L2,39.91l5.87-7,24.26,8.62L22.55,49.4H37l-.09,1.47-7.07.31c-.13.45-.25.91-.37,1.36L42,57.92l-.71,1.36L22.66,61.22c10.09,8.91,24.6,12.39,26.24,28l-8.38-.83c8.34,8.34,18.8,13.49,20.73,25.86l-6.4-4.4-1.79,1.69,15.36,16.18-11.34-1,11.44,23.13c-.37.78-1.64,2.41-1.28,2.9A38,38,0,0,0,74,160.42c8.31,6.51,8.42,7.62-1.17,14.3,2.59,2.9,5,5.76,7.61,8.49,1.51,1.6,4.68,3,4.64,4.46-.16,6.08,4.75,6.88,8.57,8.67,6.33,3,14.49,4.08,18.87,8.69,6.85,7.18,14.75,9.61,23.8,10.92.41.06.75.56,1.47,1.13l-4.61,3.42c2.26,1.71,4.26,3.68,6.65,4.94,5.2,2.74,5.75,6.06,1.35,10.17-2.72,2.54-5.76,4.84-8,7.71-1.43,1.8-1.71,4.46-2.5,6.73l1.67.45,11.74-11.13c-.14,7.84,2.62,14.23-3.08,20.36-2.34,2.52-1.62,7.73-2.29,11.71l1.17.27,5.13-6.43v22.64c-1.35,4.87-3.68,8.51-3,11.48,5.13,22,5.07,44.21,5,66.57l5.28-1.33c-2,4.56-2.87,9-5.49,11.85-9.29,10.24-17.66,21.46-30.78,27.87-9,4.4-8.77,4.76-8.82-4.6,0-.71-1.13-1.42-2.07-2.52l-6.9,5.65,1.91.55c0,1.46.54,3.22-.1,4.33-2.81,4.89-6.4,9.39-8.9,14.42-2.89,5.84-5,12.07-7.26,18.18-.23.62.64,1.63,1.06,2.59l4.45-3.55c1,3.12.13,5.44-.06,7.81a20.75,20.75,0,0,0,.51,8c1.16,3.48,3.58,6.56,4.82,10,2.64,7.36,4.3,15.11,7.41,22.27,5.42,12.51,11.63,24.71,17.65,37.33,0,0,63.44,1.88,77.41,2,11,.06,14-3.7,11.3-14.3-2.07-8.25-8.89-13.73-18.06-13.89-12.79-.21-25.58-.05-39.31-.05-1.55-3.42-3.64-7.82-5.57-12.29-7.26-16.81-7-18.21,6.35-30.59,11.08-10.29,20.34-22.75,36.37-27,6.3-1.66,12.15-4.92,18.75-7.67-1.33,21.15,2.16,28.42,19.69,32.25,27.65,6.05,49.49,22.64,73.66,35.05,6.73,3.45,13.61,7,20.86,9,6.68,1.85,13.94,1.75,21,2.33,1.41.11,2.88-.65,4.35-.9,3.9-.66,7.79-1.54,11.72-1.81,4.75-.33,9.58.15,14.33-.23,7.73-.62,13.3-5.94,14.13-12.95.78-6.51-3.44-13.65-10.61-14.9-12.49-2.16-25.16-3.29-37.78-4.77a223.44,223.44,0,0,1-21.52-8.85,6.63,6.63,0,0,0-.88-.33c-5.42-4.25-10.91-8.3-16.55-12.12a45,45,0,0,0-12.49-5.7c-9.83-2.85-20.76-17.72-17.41-25.86,2.54-6.16,6.67-11.93,11.12-17a58.83,58.83,0,0,1,13.8-11.2c8.19-5,17.11-8.85,25.32-13.8,14.54-8.77,35.79-6.74,47.92,5.16,6,5.89,11,13.17,17.94,17.62,13.17,8.44,21.14,18.61,18.54,34.72,9.37-1.84,6.74,6.11,8.28,9.68,1.9,4.39,1.47,9.72,2,14.6l9.11.74c-1.41,6.19,4.35,11.93-1.17,18-1.52,1.66-.23,5.73-.23,8.69l1.87,0,1.35-9.5,15.8-1c.37,1.2,2.12,4.15,2,7-.25,5.46-1.57,10.86-2.77,18.3l4.91-2.93c1.16,2.95,2.35,5.93,3.53,8.92l1.38-.54-2.37-9.66,1.89-.71c2.9,5.76,5.83,11.52,8.7,17.29,3.45,6.94,6.16,14.61,15,16.81,6.18,1.53,12.5,3.59,18.75,3.57,25.49-.06,51-.76,76.49-1.12,4.78-2.79,10.6-4.39,15.53-5.76a207.11,207.11,0,0,1,60.1-7.37c10.78.27,27.12,1.28,35.1,9.91l.65-.08c8.84-1.15,11.73,1,12.26,9.62.26,4.23.76,9.76,3.51,12.32,11.67,10.91,23.65,8.23,31-6.1,5-9.73,3.09-19.23-2.48-30,5.07.94,8.59,1.88,12.16,2.21,9.11.85,18.26,2.05,27.38,2,10.09-.1,20.16-1.8,30.27-2.19,8.78-.34,17.69-.61,26.35.52,10.37,1.34,13.68-6.44,21.42-12-6-1.12-10-1.59-13.71-2.6-3.36-.91-6.55-2.4-9.81-3.64l.83-1.7,38.09-3c.7-2.67.49-6.55,2.32-8C867,473.21,865.87,465.75,865.27,456.43Z"/><rect class="cls-2" x="937.22" y="452.27" width="67.07" height="67.07" rx="2.78"/><rect class="cls-3" x="960.18" y="467.71" width="74.65" height="74.65" rx="3.01"/><path class="cls-2" d="M864.89,456.43c-5.74-.6-11.56-1.23-17.38-1.8-4.77-.47-9.63-.46-14.3-1.39-6.76-1.33-13.38-3.31-20.06-5a5.79,5.79,0,0,0,3.81,3.35c9.89,4.12,20.85,7,25.51,17.88,1,2.35,1.23,6.42-.19,8-1.72,1.93-5.68,3.07-8.47,2.77-4.13-.45-8-2.74-12.12-3.77-12.16-3-24.36-5-33-15.9s-10.34-16.24-3.41-25.42l-21.36-14.08c2.16-20.53,12.67-40.39,10-64.25-8.53,5.19-15.27,9.3-22,13.37-11.21,6.75-22.33,13.66-33.7,20.14-9.32,5.31-20.59,3.11-28.37-4.08-8-7.43-16.65-14.26-25-21.35L663,366.21c3,5.46,5.56,11.29,9.35,16.2,1.54,2,5.91,1.77,8.89,2.82,12.23,4.29,18.68,15.24,16.75,27.11a16.64,16.64,0,0,0,1.59,9.92c6.51,12.06,2.6,25.53-9.68,32.05-8.38,4.44-16.61,8.19-26.71,8.64-24.51,1.08-48.95,3.72-73.46,5a37.23,37.23,0,0,1-24.55-7.33c14.41.15,22.48-8.24,30-16,8.56-8.91,14.46-19.3,13.91-32.83-.46-11.59-5.09-21.64-10.38-30.83-9.26-16.08-20.54-31.14-31.82-46-7.55-9.94-16.56-18.83-26.54-30,6.84.29,12.51-.86,16.8,1,11.55,5,22.55,11.24,33.7,17.09,6.94,3.64,13.78,7.47,20.66,11.22-1.84-3.36-4.61-5.24-7.37-7.11-11.1-7.52-22.54-14.62-33.17-22.73-6.12-4.67-12.15-6.95-19.94-6.77A52.59,52.59,0,0,1,534.22,295c-17.78-5.66-35.05-13.11-53.14-17.44-16-3.83-32-6.44-47.2-13.44-19.06-8.77-38.84-16-55-29.66a46.89,46.89,0,0,0-7.32-5.12c-20.19-11.23-40.27-22.68-60.76-33.36-7.08-3.69-15.16-5.69-22.95-7.89-4.77-1.34-9.88-1.52-14.8-2.37-16.85-2.93-33.6-5.52-50.2,1.58-4.53,1.94-9.87,2.08-14.43,4-8.3,3.47-15.21,1.05-21.71-3.74-18.42-13.58-33.21-30-40.67-51.63-4-11.57-7.19-23.44-10.12-35.31C128.46,70.63,117.22,43,93.07,21.37,76.67,6.66,57.59.37,36.11,0,24.76-.18,15.64,2,12,16.35c-1,4-4.32,7.52-6.37,11.36S1.86,35.37,0,39.22l1.57.69c1.71-2,3.42-4.09,5.88-7l24.26,8.62L22.18,49.4H36.6c0,.49-.05,1-.08,1.47l-7.08.31-.36,1.36,12.58,5.38-.72,1.36L22.29,61.22c10.09,8.91,24.59,12.39,26.24,28l-8.38-.83c8.34,8.34,18.79,13.49,20.73,25.86l-6.4-4.4-1.79,1.69,15.36,16.18-11.34-1,11.44,23.13c-.37.78-1.65,2.41-1.29,2.9a38.31,38.31,0,0,0,6.77,7.69c8.31,6.51,8.42,7.62-1.17,14.3,2.58,2.9,5,5.76,7.61,8.49,1.51,1.6,4.68,3,4.64,4.46-.16,6.08,4.74,6.88,8.57,8.67,6.33,3,14.49,4.08,18.87,8.68,6.84,7.19,14.74,9.62,23.8,10.93.41.06.75.56,1.47,1.13l-4.62,3.42c2.27,1.71,4.27,3.68,6.66,4.94,5.2,2.74,5.75,6.06,1.35,10.17-2.73,2.54-5.77,4.84-8.05,7.71-1.42,1.8-1.7,4.46-2.49,6.73l1.66.45,11.75-11.13c-.14,7.84,2.62,14.23-3.09,20.36-2.34,2.52-1.61,7.73-2.28,11.71l1.16.27c1.64-2.06,3.29-4.11,5.13-6.43v22.64c-1.35,4.87-3.67,8.51-3,11.48,5.13,22,5.07,44.21,5,66.57l5.28-1.33c-2,4.56-2.86,9-5.48,11.85-9.29,10.24-17.67,21.46-30.79,27.87-9,4.4-8.76,4.76-8.81-4.6,0-.71-1.13-1.42-2.07-2.52l-6.91,5.65,1.91.55c0,1.46.55,3.22-.09,4.33-2.82,4.89-6.41,9.39-8.9,14.42-2.89,5.84-5,12.07-7.27,18.18-.23.62.65,1.63,1.07,2.59L89,439.41c1,3.12.13,5.44-.06,7.81a20.75,20.75,0,0,0,.52,8c1.16,3.48,3.57,6.56,4.82,10,2.64,7.36,4.3,15.11,7.41,22.27,5.42,12.51,11.63,24.71,17.65,37.33h8.32c-4-4.93-9.4-9.62-12.06-15.49-4.17-9.23-5.87-19.49-9.68-28.9-7.12-17.6-5.83-36-6.54-54.22-.34-8.63,6.16-14.71,14.36-14.52,8.4.19,15.59,7.81,15,16-.16,2.17-1.38,4.41-1,6.44,2.82,16.79,5.17,33.7,9.24,50.2,1.78,7.22,6.94,13.75,11.2,20.2,1.05,1.57,5.16,2.84,6.9,2.1,12.61-5.34,25.47-4.33,38.39-2.18,2.07.34,5.13,2.25,5.44,3.86.48,2.51-.14,6.93-1.79,7.78a31.47,31.47,0,0,1-13.82,3.7c-7.42,0-14.85-1.36-22.26-2.3-8.14-1-15.08.58-20.17,8.42,3.79.21,7.2.53,10.62.56,15.09.13,30.19.18,45.29.26,11,.06,14-3.7,11.3-14.3C206,504.28,199.2,498.8,190,498.64c-12.78-.21-25.57-.05-39.3-.05-1.55-3.42-3.65-7.82-5.58-12.29-7.25-16.81-6.95-18.21,6.36-30.59,11.08-10.29,20.33-22.75,36.36-27,6.3-1.66,12.16-4.92,18.76-7.67-1.33,21.15,2.16,28.42,19.69,32.25C254,459.36,275.8,476,300,488.36c6.72,3.45,13.6,7,20.85,9,6.68,1.85,13.95,1.75,21,2.33,1.41.11,2.88-.65,4.35-.9,3.89-.66,7.78-1.54,11.71-1.81,4.76-.33,9.58.15,14.34-.23,7.73-.62,13.3-5.94,14.13-12.95.77-6.51-3.44-13.65-10.61-14.9-13.15-2.28-26.52-3.4-39.8-5l-.92,1.54c2.6,1.66,5,4.23,7.84,4.79,5.83,1.16,11.9,1.1,17.83,1.83,3.16.38,7.08.47,9.13,2.31,2.46,2.18,3.28,6.09,4.81,9.25-2.72,1.09-5.42,3.08-8.16,3.13-14.84.31-29.7.45-44.54,0-5-.15-10.62-1.24-14.94-3.63-11.65-6.46-22.74-13.88-34.1-20.83a10.83,10.83,0,0,0-4.72-1.71c-13.62-.85-24.25-7.68-34.54-15.56-3.56-2.73-8.13-4.19-11.93-6.67a10.15,10.15,0,0,1-3.71-5c-.63-1.87,0-4.12-.22-6.16-.66-5.8,2.46-8.13,7.84-9.55,7.82-2.06,15.36-5.11,23.17-7.22,2.73-.74,7.57-1.05,8.56.36,3.14,4.43,5.94,9.6,6.94,14.83,1.25,6.47,3,11.43,10.37,12.76a16.83,16.83,0,0,1,4.18,1.44c8.52,4.08,18.05,5.59,25.68,12.29,5.79,5.07,14,7.51,21.18,11.11A310.93,310.93,0,0,0,299,442.83a45,45,0,0,0-12.49-5.7c-9.84-2.85-20.77-17.72-17.41-25.86,2.54-6.16,6.67-11.93,11.12-17A58.78,58.78,0,0,1,294,383c8.2-5,17.11-8.85,25.33-13.8,14.54-8.77,35.78-6.74,47.92,5.16,6,5.89,11,13.17,17.93,17.62,13.17,8.44,21.14,18.61,18.55,34.72,9.36-1.84,6.73,6.11,8.28,9.68,1.9,4.39,1.47,9.72,2,14.6l9.11.74c-1.41,6.19,4.34,11.94-1.18,18-1.51,1.66-.23,5.73-.23,8.69l1.88,0L425,469l15.8-1c.37,1.2,2.12,4.15,2,7-.25,5.46-1.57,10.86-2.77,18.3l4.9-2.93,3.54,8.92,1.38-.54-2.37-9.66,1.89-.71c2.9,5.76,5.82,11.52,8.7,17.29,3.45,6.94,6.16,14.61,15,16.81,6.18,1.53,12.49,3.59,18.74,3.58,25.5-.07,51-.77,76.49-1.13,4.79-2.79,10.61-4.39,15.53-5.76a207.22,207.22,0,0,1,60.11-7.37c10.78.27,27.12,1.28,35.1,9.91l.65-.08c8.84-1.15,11.73,1,12.26,9.62.25,4.23.76,9.76,3.51,12.32,11.67,10.91,23.65,8.23,31-6.1,5-9.73,3.09-19.23-2.48-30,5.06.94,8.58,1.88,12.16,2.21,9.11.85,18.25,2.05,27.37,2,10.1-.1,20.17-1.8,30.28-2.19,8.77-.34,17.69-.61,26.35.52,10.37,1.34,13.68-6.44,21.41-12-6-1.12-10-1.59-13.7-2.6-3.36-.91-6.55-2.4-9.81-3.64.27-.57.55-1.13.82-1.7l38.1-3c.7-2.67.49-6.55,2.32-8C866.6,473.21,865.5,465.75,864.89,456.43ZM92.31,62c-2.92-2.47-5.17-5.69-8.23-9.23C75,65.34,71.27,50.08,64,51.13a9.35,9.35,0,0,1,.26,2.52c-.4,2.36-1,4.69-1.47,7-1.82-1.42-4.18-2.49-5.35-4.3-3.85-5.92-6.18-13.23-11.18-17.87-4.48-4.15-11.73-5.47-17.76-8-2.27-1-4.55-1.9-6.83-2.84l5.85-3.94-3-5.47a44.37,44.37,0,0,1,6.36-2.58C46,12,60.05,14.28,73,23c1.58,1.07,3.7,1.43,5.61,2C90,28.07,89.38,28.14,91,39.34c.88,5.94,4.47,11.48,6.56,17.29.63,1.74.35,3.79.49,5.7C96.11,62.27,93.46,63,92.31,62Zm51,395.78-1.66-1.44c3.94-8.5,11.12-14.2,18.14-20l1.74,1.51Zm576.08,78.81c-3.13,6-8.08,8.33-15.52,6,0-7.84.45-15.21-.22-22.47-.26-2.83-2.37-6.64-4.8-7.93-7.53-4-16.22-6.11-23.35-10.62-11.81-7.48-24.42-5.64-37.08-5.23-2.49.09-5,.54-7.46.7-11,.67-21.89-1.48-32.6,5.06-5.71,3.49-14.79,1.68-22.33,2.49-2.49.27-4.9,1.26-9.29,2.45l5.62,2.59c-.9.62-1.46,1.34-2,1.32-11.41-.36-23.1.57-34.15-1.6-11.8-2.33-19.25-17.19-16.15-27.91,3.8-13.18,14.85-19.89,28.88-15.82,13.81,4,27.47,6.69,42,6,4.16-.2,9.61,2.25,12.5,5.27,3.83,4,7.59,4.49,12,3.07a116.88,116.88,0,0,1,47.35-5c6.18.59,12.29,3.31,18.08,5.83,5.64,2.45,10.59,6.48,16.3,8.73,6.85,2.69,12.78,5.67,17.56,11.68C722.4,510.87,725.1,525.67,719.38,536.59Z"/></svg>